# xmcd
#
# Track frame offsets:
#  150
#  13274
#  25614
#  35180
#  46506
#  58698
#  67705
#  78727
#  90614
#  98843
#  110837
#  127049
#  140680
#  151921
#  166989
#  177126
#  189478
#  198271
#  210333
#  219762
#  229218
#  240651
#  252659
#  265633
#
# Disc length: 3676 seconds
#
# Revision: 0
# Processed by: cddbd v1.5.2PL0 Copyright (c) Steve Scherf et al.
# Submitted via: AltoMP3_Maker 3.0
#
DISCID=470e5a18
DTITLE=Jimmy Martin - Good 'n' Country - Country Music Time
DYEAR=1900
DGENRE=
TTITLE0=You Don't Know My Mind
TTITLE1=Homesick
TTITLE2=Bear Tracks
TTITLE3=Night
TTITLE4=Grand Ole Opry
TTITLE5=Who'll Sing for Me
TTITLE6=Hold Whatcha Got
TTITLE7=Before the Sun Goes down
TTITLE8=Cripple Creek
TTITLE9=It's Not Like Home
TTITLE10=All the Good Times Are Past and Gone
TTITLE11=I Like to Hear 'Em Preach It
TTITLE12=There Ain't Nobody Gonna Miss Me
TTITLE13=Pretending I Don't Care
TTITLE14=Leavin' Town
TTITLE15=Don't Give Your Heart to a Rambler
TTITLE16=Train Forty-Five
TTITLE17=Drink up and Go Home
TTITLE18=I Can, I Will, I Do Believe
TTITLE19=There Was a Love
TTITLE20=Hit Parade of Love
TTITLE21=Steppin' Stones
TTITLE22=The Joke's on You
TTITLE23=Skip Hop and Wobble
EXTD=
EXTT0=
EXTT1=
EXTT2=
EXTT3=
EXTT4=
EXTT5=
EXTT6=
EXTT7=
EXTT8=
EXTT9=
EXTT10=
EXTT11=
EXTT12=
EXTT13=
EXTT14=
EXTT15=
EXTT16=
EXTT17=
EXTT18=
EXTT19=
EXTT20=
EXTT21=
EXTT22=
EXTT23=
PLAYORDER=
